<?xml version="1.0" encoding="utf-8"?>
<!-- Generator: Adobe Illustrator 28.0.0, SVG Export Plug-In . SVG Version: 6.00 Build 0)  -->
<svg version="1.1" id="Layer_1" xmlns="http://www.w3.org/2000/svg" xmlns:xlink="http://www.w3.org/1999/xlink" x="0px" y="0px"
	 viewBox="0 0 226.62 226.62" enable-background="new 0 0 226.62 226.62" xml:space="preserve">
<g>
	<g>
		<path fill="#193C55" d="M31.51,209.15l-1.64-4.31H15.9l-1.64,4.41c-0.64,1.72-1.19,2.88-1.64,3.48s-1.2,0.9-2.23,0.9
			c-0.88,0-1.65-0.32-2.32-0.96s-1.01-1.37-1.01-2.18c0-0.47,0.08-0.95,0.23-1.45s0.41-1.2,0.77-2.09l8.79-22.31
			c0.25-0.64,0.55-1.41,0.9-2.31s0.73-1.64,1.12-2.24s0.92-1.07,1.57-1.44s1.45-0.55,2.4-0.55c0.97,0,1.78,0.18,2.43,0.55
			s1.17,0.84,1.57,1.42s0.73,1.2,1.01,1.86s0.62,1.55,1.04,2.66l8.98,22.17c0.7,1.69,1.05,2.91,1.05,3.68c0,0.8-0.33,1.53-1,2.19
			s-1.46,1-2.4,1c-0.55,0-1.02-0.1-1.41-0.29s-0.72-0.46-0.98-0.8s-0.55-0.85-0.86-1.55C31.99,210.29,31.73,209.68,31.51,209.15z
			 M17.73,199.61H28l-5.18-14.18L17.73,199.61z"/>
		<path fill="#193C55" d="M43.6,209.73v-27.75c0-1.28,0.29-2.25,0.86-2.91s1.34-0.98,2.31-0.98s1.75,0.32,2.34,0.97
			s0.89,1.62,0.89,2.92v27.75c0,1.3-0.3,2.27-0.9,2.92s-1.38,0.97-2.33,0.97c-0.94,0-1.7-0.34-2.29-1.01S43.6,210.98,43.6,209.73z"
			/>
		<path fill="#193C55" d="M56.96,188.17h0.7v-3.84c0-1.03,0.03-1.84,0.08-2.43s0.21-1.09,0.46-1.51c0.25-0.44,0.61-0.79,1.08-1.07
			s0.99-0.41,1.57-0.41c0.81,0,1.55,0.3,2.2,0.91c0.44,0.41,0.71,0.9,0.83,1.49s0.18,1.42,0.18,2.5v4.36h2.34
			c0.91,0,1.6,0.21,2.07,0.64s0.71,0.98,0.71,1.65c0,0.86-0.34,1.46-1.02,1.8s-1.65,0.52-2.92,0.52h-1.2v11.77
			c0,1,0.04,1.77,0.11,2.31s0.26,0.98,0.56,1.31s0.8,0.5,1.49,0.5c0.38,0,0.88-0.07,1.52-0.2s1.14-0.2,1.5-0.2
			c0.52,0,0.98,0.21,1.39,0.62s0.62,0.93,0.62,1.54c0,1.03-0.56,1.82-1.69,2.37s-2.74,0.82-4.85,0.82c-2,0-3.52-0.34-4.55-1.01
			s-1.71-1.6-2.03-2.79s-0.48-2.77-0.48-4.76v-12.28h-0.84c-0.92,0-1.62-0.22-2.11-0.66s-0.73-0.99-0.73-1.66s0.25-1.22,0.76-1.65
			S56,188.17,56.96,188.17z"/>
		<path fill="#193C55" d="M76.84,184.63c-0.89,0-1.65-0.27-2.29-0.82s-0.95-1.32-0.95-2.32c0-0.91,0.32-1.65,0.97-2.24
			s1.4-0.88,2.26-0.88c0.83,0,1.56,0.27,2.2,0.8s0.96,1.3,0.96,2.32c0,0.98-0.31,1.75-0.94,2.31S77.7,184.63,76.84,184.63z
			 M80,191.24v18.49c0,1.28-0.3,2.25-0.91,2.91s-1.38,0.98-2.32,0.98s-1.7-0.34-2.29-1.01s-0.88-1.63-0.88-2.88v-18.3
			c0-1.27,0.29-2.22,0.88-2.86s1.35-0.96,2.29-0.96s1.71,0.32,2.32,0.96S80,190.1,80,191.24z"/>
		<path fill="#193C55" d="M107.89,201.08v8.51c0,1.34-0.3,2.35-0.91,3.02s-1.41,1.01-2.41,1.01c-0.97,0-1.75-0.34-2.36-1.01
			s-0.9-1.68-0.9-3.02v-10.2c0-1.61-0.05-2.86-0.16-3.75s-0.41-1.62-0.89-2.19s-1.25-0.86-2.3-0.86c-2.09,0-3.47,0.72-4.14,2.16
			s-1,3.5-1,6.19v8.65c0,1.33-0.3,2.33-0.9,3.01s-1.39,1.02-2.38,1.02c-0.97,0-1.76-0.34-2.38-1.02s-0.93-1.68-0.93-3.01v-18.3
			c0-1.2,0.28-2.12,0.83-2.74s1.29-0.94,2.19-0.94c0.88,0,1.61,0.29,2.19,0.88s0.88,1.39,0.88,2.43v0.61
			c1.11-1.33,2.3-2.3,3.56-2.93s2.67-0.94,4.22-0.94c1.61,0,2.99,0.32,4.15,0.96s2.11,1.61,2.86,2.91c1.08-1.31,2.23-2.29,3.47-2.92
			s2.6-0.95,4.1-0.95c1.75,0,3.26,0.34,4.52,1.03s2.21,1.67,2.84,2.95c0.55,1.16,0.82,2.98,0.82,5.46v12.49
			c0,1.34-0.3,2.35-0.91,3.02s-1.41,1.01-2.41,1.01c-0.97,0-1.76-0.34-2.38-1.02s-0.93-1.68-0.93-3.01v-10.76
			c0-1.38-0.06-2.48-0.18-3.3s-0.43-1.52-0.95-2.09s-1.3-0.84-2.34-0.84c-0.84,0-1.64,0.25-2.4,0.75s-1.35,1.17-1.77,2.02
			C108.13,196.44,107.89,198.35,107.89,201.08z"/>
		<path fill="#193C55" d="M146.94,202.19h-12.52c0.02,1.45,0.31,2.73,0.88,3.84s1.33,1.95,2.27,2.51s1.99,0.84,3.13,0.84
			c0.77,0,1.46-0.09,2.1-0.27s1.25-0.46,1.84-0.84s1.14-0.79,1.64-1.23s1.15-1.03,1.95-1.78c0.33-0.28,0.8-0.42,1.41-0.42
			c0.66,0,1.19,0.18,1.59,0.54s0.61,0.87,0.61,1.52c0,0.58-0.23,1.25-0.68,2.03s-1.14,1.52-2.05,2.23s-2.06,1.3-3.45,1.77
			s-2.97,0.7-4.77,0.7c-4.11,0-7.3-1.17-9.59-3.52s-3.42-5.52-3.42-9.54c0-1.89,0.28-3.64,0.84-5.26s1.38-3,2.46-4.16
			s2.41-2.04,3.98-2.66s3.33-0.93,5.25-0.93c2.5,0,4.64,0.53,6.43,1.58s3.13,2.42,4.02,4.09s1.34,3.38,1.34,5.11
			c0,1.61-0.46,2.65-1.38,3.13S148.61,202.19,146.94,202.19z M134.42,198.55h11.6c-0.16-2.19-0.75-3.82-1.77-4.91
			s-2.37-1.63-4.04-1.63c-1.59,0-2.9,0.55-3.93,1.65S134.64,196.4,134.42,198.55z"/>
		<path fill="#193C55" d="M157.96,188.17h0.7v-3.84c0-1.03,0.03-1.84,0.08-2.43s0.21-1.09,0.46-1.51c0.25-0.44,0.61-0.79,1.08-1.07
			s0.99-0.41,1.57-0.41c0.81,0,1.55,0.3,2.2,0.91c0.44,0.41,0.71,0.9,0.83,1.49s0.18,1.42,0.18,2.5v4.36h2.34
			c0.91,0,1.6,0.21,2.07,0.64s0.71,0.98,0.71,1.65c0,0.86-0.34,1.46-1.02,1.8s-1.65,0.52-2.92,0.52h-1.2v11.77
			c0,1,0.04,1.77,0.11,2.31s0.26,0.98,0.56,1.31s0.8,0.5,1.49,0.5c0.38,0,0.88-0.07,1.52-0.2s1.14-0.2,1.5-0.2
			c0.52,0,0.98,0.21,1.39,0.62s0.62,0.93,0.62,1.54c0,1.03-0.56,1.82-1.69,2.37s-2.74,0.82-4.85,0.82c-2,0-3.52-0.34-4.55-1.01
			s-1.71-1.6-2.03-2.79s-0.48-2.77-0.48-4.76v-12.28h-0.84c-0.92,0-1.62-0.22-2.11-0.66s-0.73-0.99-0.73-1.66s0.25-1.22,0.76-1.65
			S156.99,188.17,157.96,188.17z"/>
		<path fill="#193C55" d="M192.46,202.19h-12.52c0.02,1.45,0.31,2.73,0.88,3.84s1.33,1.95,2.27,2.51s1.99,0.84,3.13,0.84
			c0.77,0,1.46-0.09,2.1-0.27s1.25-0.46,1.84-0.84s1.14-0.79,1.64-1.23s1.15-1.03,1.95-1.78c0.33-0.28,0.8-0.42,1.41-0.42
			c0.66,0,1.19,0.18,1.59,0.54s0.61,0.87,0.61,1.52c0,0.58-0.23,1.25-0.68,2.03s-1.14,1.52-2.05,2.23s-2.06,1.3-3.45,1.77
			s-2.97,0.7-4.77,0.7c-4.11,0-7.3-1.17-9.59-3.52s-3.42-5.52-3.42-9.54c0-1.89,0.28-3.64,0.84-5.26s1.38-3,2.46-4.16
			s2.41-2.04,3.98-2.66s3.33-0.93,5.25-0.93c2.5,0,4.64,0.53,6.43,1.58s3.13,2.42,4.02,4.09s1.34,3.38,1.34,5.11
			c0,1.61-0.46,2.65-1.38,3.13S194.13,202.19,192.46,202.19z M179.94,198.55h11.6c-0.16-2.19-0.75-3.82-1.77-4.91
			s-2.37-1.63-4.04-1.63c-1.59,0-2.9,0.55-3.93,1.65S180.16,196.4,179.94,198.55z"/>
		<path fill="#193C55" d="M209.47,204.39v5.34c0,1.3-0.3,2.27-0.91,2.92s-1.38,0.97-2.32,0.97c-0.92,0-1.68-0.33-2.27-0.98
			s-0.89-1.62-0.89-2.91v-17.81c0-2.88,1.04-4.31,3.12-4.31c1.06,0,1.83,0.34,2.3,1.01s0.73,1.66,0.77,2.98
			c0.77-1.31,1.55-2.3,2.36-2.98s1.88-1.01,3.22-1.01s2.65,0.34,3.91,1.01s1.9,1.56,1.9,2.67c0,0.78-0.27,1.43-0.81,1.93
			s-1.12,0.76-1.75,0.76c-0.23,0-0.8-0.14-1.7-0.43s-1.69-0.43-2.38-0.43c-0.94,0-1.7,0.25-2.3,0.74s-1.05,1.22-1.38,2.19
			s-0.55,2.12-0.68,3.46S209.47,202.47,209.47,204.39z"/>
	</g>
</g>
<path fill="#193C55" d="M137.93,78.39c-0.42-1.02-1.59-1.5-2.61-1.08s-1.5,1.59-1.08,2.61l26.63,64.18c0.02,0.04,0.2,0.18,0.23,0.23
	c0.28-0.23,0.56-0.34,0.83-0.58c0.79-0.69,1.49-1.44,2.24-2.16L137.93,78.39z"/>
<path fill="#193C55" d="M132.65,65.9c-0.02-0.18-0.06-0.36-0.13-0.54l-16.45-39.65c-0.31-0.75-1.04-1.23-1.85-1.23
	s-1.54,0.49-1.85,1.23l-47.9,115.45c1.02,0.98,2.07,1.93,3.15,2.85l46.54-112.16l7.9,41.32l-7.76,9.05
	c-0.72,0.84-0.62,2.1,0.22,2.82c0.38,0.32,0.84,0.48,1.3,0.48c0.56,0,1.12-0.24,1.52-0.7L132.2,67.5
	C132.59,67.04,132.73,66.46,132.65,65.9z"/>
<path fill="#193C55" d="M60.23,80.43c-0.4-0.42-0.95-0.65-1.53-0.64c-0.58,0.02-1.12,0.29-1.48,0.74L42.63,98.55
	c0.23,1.79,0.5,3.56,0.85,5.3l15.39-19.01L72.5,99.48c0.75,0.81,2.02,0.85,2.83,0.1c0.81-0.75,0.85-2.02,0.1-2.83L60.23,80.43z"/>
<path fill="#193C55" d="M160.86,144.1c16.45-13.24,25.64-32.21,25.64-54.92c0-39.79-32.37-72.16-72.16-72.16v-4
	c41.99,0,76.16,34.16,76.16,76.16c0,24.2-10.44,44.35-28.09,58.31"/>
<path fill="#193C55" d="M186.49,88.66l-27.87-34.42c-0.37-0.45-0.91-0.72-1.49-0.74s-1.14,0.21-1.53,0.64l-15.2,16.32
	c-0.75,0.81-0.71,2.07,0.1,2.83c0.81,0.75,2.07,0.71,2.83-0.1l13.63-14.64l29.3,36.2c0.14-1.84,0.24-3.69,0.24-5.56
	C186.5,89.01,186.49,88.84,186.49,88.66z"/>
<path fill="#AC1F24" d="M190.42,121.75l-3.67-1.6c0.26-0.59,0.5-1.17,0.74-1.77l3.71,1.5C190.96,120.51,190.69,121.13,190.42,121.75
	z"/>
<path fill="#AC1F24" d="M193.24,114.14l-3.82-1.17c0.19-0.61,0.37-1.22,0.54-1.84l3.85,1.07
	C193.63,112.85,193.44,113.5,193.24,114.14z"/>
<path fill="#AC1F24" d="M195.19,106.28l-3.93-0.75c0.12-0.63,0.23-1.26,0.34-1.89l3.95,0.65
	C195.44,104.95,195.32,105.62,195.19,106.28z"/>
<path fill="#AC1F24" d="M196.31,98.27l-3.98-0.36c0.06-0.64,0.11-1.28,0.15-1.92l3.99,0.28C196.43,96.93,196.37,97.6,196.31,98.27z"
	/>
<path fill="#AC1F24" d="M192.43,82.5c-0.05-0.64-0.12-1.28-0.19-1.92l3.98-0.43c0.07,0.67,0.14,1.34,0.2,2.01L192.43,82.5z"/>
<path fill="#AC1F24" d="M191.4,74.88c-0.12-0.63-0.24-1.26-0.37-1.89l3.91-0.82c0.14,0.66,0.27,1.32,0.39,1.98L191.4,74.88z"/>
<path fill="#AC1F24" d="M189.63,67.39c-0.18-0.62-0.36-1.23-0.56-1.84l3.81-1.21c0.2,0.64,0.4,1.29,0.59,1.94L189.63,67.39z"/>
<path fill="#AC1F24" d="M187.13,60.12c-0.24-0.59-0.48-1.18-0.73-1.77l3.68-1.58c0.26,0.62,0.52,1.24,0.77,1.86L187.13,60.12z"/>
<path fill="#AC1F24" d="M183.93,53.14c-0.3-0.57-0.6-1.13-0.91-1.69l3.5-1.93c0.32,0.59,0.64,1.18,0.95,1.78L183.93,53.14z"/>
<path fill="#AC1F24" d="M180.06,46.51c-0.35-0.54-0.7-1.07-1.07-1.6l3.3-2.26c0.38,0.55,0.76,1.11,1.12,1.68L180.06,46.51z"/>
<path fill="#AC1F24" d="M175.56,40.28c-0.4-0.5-0.81-1-1.22-1.49l3.06-2.57c0.43,0.51,0.86,1.04,1.28,1.56L175.56,40.28z"/>
<path fill="#AC1F24" d="M170.46,34.51c-0.45-0.46-0.9-0.91-1.36-1.36l2.79-2.86c0.48,0.47,0.96,0.95,1.43,1.43L170.46,34.51z"/>
<path fill="#AC1F24" d="M164.83,29.28c-0.49-0.41-0.99-0.82-1.49-1.22l2.5-3.12c0.53,0.42,1.05,0.85,1.56,1.29L164.83,29.28z"/>
<path fill="#AC1F24" d="M158.71,24.61c-0.53-0.36-1.06-0.72-1.6-1.07l2.19-3.35c0.56,0.37,1.13,0.75,1.68,1.13L158.71,24.61z"/>
<path fill="#AC1F24" d="M152.17,20.56c-0.56-0.31-1.13-0.61-1.7-0.91l1.85-3.55c0.6,0.31,1.19,0.63,1.78,0.96L152.17,20.56z"/>
<path fill="#AC1F24" d="M145.25,17.18c-0.59-0.25-1.18-0.5-1.78-0.74l1.49-3.71c0.63,0.25,1.25,0.51,1.88,0.78L145.25,17.18z"/>
<path fill="#AC1F24" d="M138.04,14.49c-0.61-0.19-1.23-0.38-1.85-0.56l1.11-3.84c0.65,0.19,1.3,0.38,1.94,0.59L138.04,14.49z"/>
<path fill="#AC1F24" d="M130.6,12.54c-0.63-0.13-1.25-0.26-1.89-0.37l0.73-3.93c0.66,0.12,1.33,0.25,1.98,0.39L130.6,12.54z"/>
<path fill="#AC1F24" d="M123,11.32c-0.64-0.07-1.27-0.13-1.91-0.19l0.34-3.99c0.67,0.06,1.35,0.12,2.01,0.2L123,11.32z"/>
<g>
	<line fill="none" x1="115.12" y1="10.85" x2="115.12" y2="3.45"/>
	<rect x="114.12" y="3.45" fill="#AC1F24" width="2" height="7.39"/>
</g>
<g>
	<line fill="none" x1="192.5" y1="89.06" x2="199.9" y2="89.06"/>
	<rect x="192.5" y="88.06" fill="#AC1F24" width="7.39" height="2"/>
</g>
<g>
	<path fill="#193C55" d="M176.46,125.71c-4.48,7.55-10.29,14.22-17.11,19.68c-12.35,9.88-28,15.79-45,15.79
		c-26.37,0-49.47-14.22-62.06-35.4h-4.61c12.99,23.47,38,39.4,66.67,39.4c18.09,0,34.73-6.34,47.81-16.92
		c7.62-6.16,14.03-13.76,18.81-22.37"/>
</g>
<g>
	<path fill="#AC1F24" d="M93.01,124.2c-0.69,0-1.25-0.56-1.25-1.25v-9.63c0-0.69,0.56-1.25,1.25-1.25s1.25,0.56,1.25,1.25v9.63
		C94.26,123.64,93.7,124.2,93.01,124.2z"/>
	<path fill="#AC1F24" d="M101.97,124.2c-0.69,0-1.25-0.56-1.25-1.25V108.6c0-0.69,0.56-1.25,1.25-1.25s1.25,0.56,1.25,1.25v14.35
		C103.22,123.64,102.66,124.2,101.97,124.2z"/>
	<path fill="#AC1F24" d="M110.93,124.2c-0.69,0-1.25-0.56-1.25-1.25v-4.37c0-0.69,0.56-1.25,1.25-1.25s1.25,0.56,1.25,1.25v4.37
		C112.18,123.64,111.62,124.2,110.93,124.2z"/>
	<path fill="#AC1F24" d="M119.89,124.2c-0.69,0-1.25-0.56-1.25-1.25v-18.9c0-0.69,0.56-1.25,1.25-1.25s1.25,0.56,1.25,1.25v18.9
		C121.14,123.64,120.58,124.2,119.89,124.2z"/>
	<path fill="#AC1F24" d="M128.86,124.2c-0.69,0-1.25-0.56-1.25-1.25V108.6c0-0.69,0.56-1.25,1.25-1.25s1.25,0.56,1.25,1.25v14.35
		C130.11,123.64,129.55,124.2,128.86,124.2z"/>
	<path fill="#AC1F24" d="M137.82,124.2c-0.69,0-1.25-0.56-1.25-1.25v-6.47c0-0.69,0.56-1.25,1.25-1.25s1.25,0.56,1.25,1.25v6.47
		C139.07,123.64,138.51,124.2,137.82,124.2z"/>
</g>
<path fill="#193C55" d="M48.43,125.78c13.32,22.49,37.81,37.57,65.84,37.57c28.03,0,52.52-15.08,65.84-37.57
	C180.11,125.78,48.43,125.78,48.43,125.78z M94.26,139.3c0,0.69-0.56,1.25-1.25,1.25s-1.25-0.56-1.25-1.25v-9.63
	c0-0.69,0.56-1.25,1.25-1.25s1.25,0.56,1.25,1.25V139.3z M103.22,144.02c0,0.69-0.56,1.25-1.25,1.25s-1.25-0.56-1.25-1.25v-14.35
	c0-0.69,0.56-1.25,1.25-1.25s1.25,0.56,1.25,1.25V144.02z M112.18,134.03c0,0.69-0.56,1.25-1.25,1.25s-1.25-0.56-1.25-1.25v-4.37
	c0-0.69,0.56-1.25,1.25-1.25s1.25,0.56,1.25,1.25V134.03z M121.14,148.57c0,0.69-0.56,1.25-1.25,1.25s-1.25-0.56-1.25-1.25v-18.9
	c0-0.69,0.56-1.25,1.25-1.25s1.25,0.56,1.25,1.25V148.57z M130.11,144.02c0,0.69-0.56,1.25-1.25,1.25s-1.25-0.56-1.25-1.25v-14.35
	c0-0.69,0.56-1.25,1.25-1.25s1.25,0.56,1.25,1.25V144.02z M139.07,136.13c0,0.7-0.56,1.25-1.25,1.25s-1.25-0.56-1.25-1.25v-6.47
	c0-0.69,0.56-1.25,1.25-1.25s1.25,0.56,1.25,1.25V136.13z"/>
<path fill="#AC1F24" d="M187.06,128.83l-3.55-1.85c0.3-0.57,0.58-1.14,0.86-1.71l3.6,1.75
	C187.68,127.62,187.37,128.23,187.06,128.83z"/>
</svg>
